# xmcd CD database file
#
# Track frame offsets:
#	150
#	17094
#	38085
#	50825
#	72863
#	86565
#	101732
#	120480
#	142463
#	158648
#
# Disc length: 2424 seconds
#
# Revision: 0
# Processed by: cddbd v1.5PL3 Copyright (c) Steve Scherf et al.
# Submitted via: CDex 1.51
#
DISCID=8909760a
DTITLE=Stringtime - Unplugged
DYEAR=1999
DGENRE=Blues
TTITLE0=Wild World
TTITLE1=Sweet Home Alabama
TTITLE2=San Francisco Blues
TTITLE3=Living Colours
TTITLE4=Come Together
TTITLE5=Moovin' and Groovin'
TTITLE6=Lazy Sunny Afternoon
TTITLE7=Tears In heaven
TTITLE8=After Midnight
TTITLE9=Don't Look Back
EXTD=YEAR: 1999
EXTT0=
EXTT1=
EXTT2=
EXTT3=
EXTT4=
EXTT5=
EXTT6=
EXTT7=
EXTT8=
EXTT9=
PLAYORDER=
